Patient4_TMGait_0pt8_01_right_37_GRF.mot
version=1
nRows=78
nColumns=19
inDegrees=no
endheader
time	F1x	F1y	F1z	M1x	M1y	M1z	F2x	F2y	F2z	M2x	M2y	M2z	EC1x	EC1y	EC1z	EC2x	EC2y	EC2z
41.5	15.4413	754.1192	63.0063	-264.5569	-62.6048	811.803	14.3953	-12.5248	4.4045	-2.3265	-6.9604	-20.0615	-0.0592	0.0182	-0.0073	-0.0462	0.0165	0.9585
41.5112	11.9883	741.4049	63.1056	-259.6464	-62.2432	792.1221	9.2912	-7.4355	3.0311	-1.1949	-4.5048	-12.3615	-0.0592	0.0182	-0.0073	-0.0462	0.0165	0.9585
41.5224	9.4114	727.8677	63.1191	-254.1532	-61.6404	771.7632	5.0257	-3.1429	1.8049	-0.20718	-2.4045	-5.8621	-0.0592	0.0182	-0.0073	-0.0462	0.0165	0.9585
41.5336	7.8473	714.6455	63.1162	-248.5029	-60.8923	752.2198	1.7847	0.1582	0.81804	0.57513	-0.77062	-0.84799	-0.0592	0.0182	-0.0073	-0.0462	0.0165	0.9585
41.5449	7.2128	702.7591	63.1242	-243.1159	-60.0708	734.6681	-0.41886	2.4607	0.10948	1.1401	0.36496	2.6439	-0.0592	0.0182	-0.0073	-0.0462	0.0165	0.9585
41.5561	7.3697	692.9702	63.1492	-238.3357	-59.206	719.8468	-1.7883	3.9481	-0.35977	1.5204	1.0914	4.8975	-0.0592	0.0182	-0.0073	-0.0462	0.0165	0.9585
41.5673	8.1674	685.7226	63.1067	-234.3899	-58.2291	708.0616	-2.4895	4.7829	-0.6351	1.7467	1.494	6.1508	-0.0592	0.0182	-0.0073	-0.0462	0.0165	0.9585
41.5785	9.5499	681.196	63.0313	-231.387	-57.1424	699.3024	-2.7842	5.1436	-0.78532	1.8496	1.7011	6.7065	-0.0592	0.0182	-0.0073	-0.0462	0.0165	0.9585
41.5897	11.4887	679.3711	62.9296	-229.3456	-55.919	693.3372	-2.8062	5.1135	-0.86078	1.8363	1.7943	6.6899	-0.0592	0.0182	-0.0073	-0.0462	0.0165	0.9585
41.6009	13.9921	680.0968	62.9261	-228.2182	-54.6352	689.8267	-2.7342	4.7519	-0.90111	1.7037	1.8534	6.2313	-0.0592	0.0182	-0.0073	-0.0462	0.0165	0.9585
41.6121	17.0857	683.1901	63.0738	-227.9372	-53.313	688.4809	-2.6173	4.0266	-0.94072	1.426	1.9189	5.2947	-0.0592	0.0182	-0.0073	-0.0462	0.0165	0.9585
41.6234	20.747	688.4622	63.4525	-228.4325	-52.0162	689.0107	-2.5371	2.9151	-0.99507	0.97686	2.0193	3.8769	-0.0592	0.0182	-0.0073	-0.0462	0.0165	0.9585
41.6346	24.9644	695.807	64.0635	-229.6676	-50.7387	691.2666	-2.4524	1.3296	-1.0675	0.31996	2.1365	1.8503	-0.0592	0.0182	-0.0073	-0.0462	0.0165	0.9585
41.6458	29.7282	705.1373	64.8855	-231.6196	-49.4519	695.1195	-2.3509	-0.72879	-1.1403	-0.54915	2.2319	-0.77135	-0.0592	0.0182	-0.0073	-0.0462	0.0165	0.9585
41.657	34.966	716.354	65.8746	-234.2603	-48.1274	700.4637	-2.1093	-3.2275	-1.18	-1.6066	2.2139	-3.9577	-0.0592	0.0182	-0.0073	-0.0462	0.0165	0.9585
41.6682	40.6523	729.2173	66.9935	-237.5169	-46.7338	707.0754	-1.6364	-5.9106	-1.116	-2.7395	1.9477	-7.3751	-0.0592	0.0182	-0.0073	-0.0462	0.0165	0.9585
41.6794	46.6384	743.2704	68.229	-241.2452	-45.2953	714.5634	-0.7488	-8.3052	-0.8797	-3.7332	1.2662	-10.4494	-0.0592	0.0182	-0.0073	-0.0462	0.0165	0.9585
41.6906	52.8111	757.7446	69.5679	-245.2013	-43.8406	722.2526	0.68945	-9.5347	-0.34428	-4.2077	-0.046119	-12.0764	-0.0592	0.0182	-0.0073	-0.0462	0.0165	0.9585
41.7019	58.987	771.5771	70.9567	-249.0404	-42.3875	729.2425	2.8487	-8.3154	0.59827	-3.6039	-2.1886	-10.6566	-0.0592	0.0182	-0.0073	-0.0462	0.0165	0.9585
41.7131	65.027	783.4473	72.2876	-252.3348	-40.906	734.3613	5.7671	-2.8643	2.0696	-1.154	-5.3185	-3.9485	-0.0592	0.0182	-0.0073	-0.0462	0.0165	0.9585
41.7243	70.7841	791.901	73.3952	-254.6117	-39.3149	736.3686	9.3785	8.9943	4.1383	4.079	-9.4695	10.7615	-0.0592	0.0182	-0.0073	-0.0462	0.0165	0.9585
41.7355	76.1816	795.4951	74.0839	-255.4052	-37.4944	734.0026	13.3049	29.6652	6.7732	13.1158	-14.4215	36.496	-0.0592	0.0182	-0.0073	-0.0462	0.0165	0.9585
41.7467	81.0868	792.8926	74.1446	-254.2849	-35.327	726.1638	16.8187	61.2808	9.7844	26.8504	-19.5901	75.9314	-0.0592	0.0182	-0.0073	-0.0462	0.0165	0.9585
41.7579	85.4176	782.8556	73.3357	-250.8566	-32.6611	711.8476	18.6217	104.9698	12.6884	45.7235	-23.791	130.513	-0.0592	0.0182	-0.0073	-0.0462	0.0165	0.9585
41.7691	88.9319	764.2415	71.4272	-244.7547	-29.3967	690.189	16.8842	159.8506	14.7294	69.2936	-25.2873	199.1881	-0.0592	0.0182	-0.0073	-0.0462	0.0165	0.9585
41.7804	91.3897	736.0589	68.1887	-235.6649	-25.4408	660.4448	9.9244	222.191	14.8532	95.8757	-22.0585	277.3632	-0.0592	0.0182	-0.0073	-0.0462	0.0165	0.9585
41.7916	92.3738	697.6383	63.5027	-223.369	-20.8533	622.2081	-1.9264	285.5365	11.7557	122.6381	-12.7632	356.9673	-0.0592	0.0182	-0.0073	-0.0462	0.0165	0.9585
41.8028	91.4629	648.8642	57.4105	-207.8208	-15.8316	575.4943	-15.912	342.9138	5.1583	146.6317	1.6518	429.0026	-0.0592	0.0182	-0.0073	-0.0462	0.0165	0.9585
41.814	88.2581	590.5008	50.1771	-189.2383	-10.7421	521.1207	-29.4836	390.595	-3.8389	166.3397	18.6746	488.4506	-0.0592	0.0182	-0.0073	-0.0462	0.0165	0.9585
41.8252	82.5542	524.3013	42.2909	-168.1458	-6.0616	460.6886	-41.2396	429.3054	-13.6634	182.1586	35.7632	535.9126	-0.0592	0.0182	-0.0073	-0.0462	0.0165	0.9585
41.8364	74.4193	453.0026	34.3338	-145.379	-2.2357	396.6147	-50.6495	462.3525	-22.8799	195.5731	50.9772	575.4659	-0.0592	0.0182	-0.0073	-0.0462	0.0165	0.9585
41.8476	64.2551	379.9586	26.8561	-121.9896	0.43664	331.754	-57.6636	493.2091	-30.5333	208.1371	63.1535	611.5074	-0.0592	0.0182	-0.0073	-0.0462	0.0165	0.9585
41.8589	52.7421	308.8006	20.2177	-99.1396	1.9107	269.127	-62.5228	524.429	-36.0063	220.965	71.7171	647.3042	-0.0592	0.0182	-0.0073	-0.0462	0.0165	0.9585
41.8701	40.8124	242.8744	14.6463	-77.9191	2.3356	211.4811	-65.5443	557.019	-39.4294	234.4777	76.9761	684.1965	-0.0592	0.0182	-0.0073	-0.0462	0.0165	0.9585
41.8813	29.4464	184.7902	10.2328	-59.1897	1.9885	160.9167	-67.1361	590.9843	-41.2938	248.612	79.733	722.2728	-0.0592	0.0182	-0.0073	-0.0462	0.0165	0.9585
41.8925	19.4322	135.9309	6.9902	-43.418	1.144	118.5014	-67.7185	625.6317	-42.4684	262.983	81.2032	760.8294	-0.0592	0.0182	-0.0073	-0.0462	0.0165	0.9585
41.9037	11.2516	96.4883	4.7635	-30.6863	0.10011	84.3159	-67.7116	659.8719	-43.7079	277.0497	82.4687	798.6961	-0.0592	0.0182	-0.0073	-0.0462	0.0165	0.9585
41.9149	4.9631	65.7546	3.3263	-20.7824	-0.92727	57.7059	-67.4894	692.4977	-45.5845	290.2426	84.3553	834.5219	-0.0592	0.0182	-0.0073	-0.0462	0.0165	0.9585
41.9261	0.48346	42.567	2.4179	-13.3369	-1.7538	37.6374	-67.3526	722.3241	-48.315	302.0543	87.2345	866.9599	-0.0592	0.0182	-0.0073	-0.0462	0.0165	0.9585
41.9374	-2.3916	25.6401	1.8212	-7.9301	-2.2737	23.0128	-67.426	748.5118	-51.7619	312.1547	90.9938	895.0175	-0.0592	0.0182	-0.0073	-0.0462	0.0165	0.9585
41.9486	-3.853	13.7649	1.3596	-4.1669	-2.4132	12.7517	-67.6512	770.5101	-55.5552	320.3676	95.175	917.9981	-0.0592	0.0182	-0.0073	-0.0462	0.0165	0.9585
41.9598	-4.1513	5.9242	0.94589	-1.7093	-2.1943	5.9822	-67.8852	787.9694	-59.2235	326.6129	99.1765	935.467	-0.0592	0.0182	-0.0073	-0.0462	0.0165	0.9585
41.971	-3.6723	1.2065	0.58125	-0.26001	-1.7535	1.8824	-67.9475	800.6091	-62.4514	330.8316	102.555	947.0709	-0.0592	0.0182	-0.0073	-0.0462	0.0165	0.9585
41.9822	-2.8731	-1.1601	0.31188	0.44003	-1.283	-0.18258	-67.7259	808.1616	-65.0733	332.9588	105.061	952.5012	-0.0592	0.0182	-0.0073	-0.0462	0.0165	0.9585
41.9934	-1.9811	-1.9768	0.1502	0.64761	-0.87296	-0.92537	-67.1076	810.5175	-67.0735	332.9832	106.6225	951.6523	-0.0592	0.0182	-0.0073	-0.0462	0.0165	0.9585
42.0046	-1.1996	-1.824	0.052268	0.55547	-0.54852	-0.81565	-66.0749	807.9832	-68.4574	331.054	107.2426	944.9062	-0.0592	0.0182	-0.0073	-0.0462	0.0165	0.9585
42.0159	-0.55206	-1.2011	0.029961	0.32367	-0.32935	-0.31764	-64.6077	801.2791	-69.2833	327.489	106.9975	933.1149	-0.0592	0.0182	-0.0073	-0.0462	0.0165	0.9585
42.0271	-0.092079	-0.39345	0.016665	0.044271	-0.16579	0.36	-62.7378	791.4329	-69.6574	322.7224	106.0321	917.4981	-0.0592	0.0182	-0.0073	-0.0462	0.0165	0.9585
42.0383	0.22425	0.39938	0.04481	-0.21967	-0.077714	1.0123	-60.5049	779.5473	-69.6463	317.2196	104.4606	899.3203	-0.0592	0.0182	-0.0073	-0.0462	0.0165	0.9585
42.0495	0.39583	1.0992	0.055802	-0.4459	-0.016428	1.6236	-57.9402	766.7228	-69.337	311.4344	102.4092	879.8541	-0.0592	0.0182	-0.0073	-0.0462	0.0165	0.9585
42.0607	0.48268	1.6671	0.077064	-0.6266	0.0045316	2.1491	-55.0408	753.895	-68.7553	305.7572	99.9252	860.148	-0.0592	0.0182	-0.0073	-0.0462	0.0165	0.9585
42.0719	0.48199	2.1154	0.077136	-0.76734	0.012188	2.6237	-51.7969	741.8156	-67.9465	300.4968	97.0616	841.0251	-0.0592	0.0182	-0.0073	-0.0462	0.0165	0.9585
42.0831	0.46195	2.4616	0.072934	-0.87441	0.0074721	3.0187	-48.1627	730.99	-66.942	295.8628	93.8397	823.0088	-0.0592	0.0182	-0.0073	-0.0462	0.0165	0.9585
42.0944	0.39244	2.7472	0.066753	-0.96029	-0.014705	3.3742	-44.0894	721.7482	-65.7687	291.9916	90.2681	806.4132	-0.0592	0.0182	-0.0073	-0.0462	0.0165	0.9585
42.1056	0.31991	2.9754	0.066664	-1.0282	-0.047775	3.6518	-39.4841	714.3356	-64.4817	288.9808	86.3681	791.4289	-0.0592	0.0182	-0.0073	-0.0462	0.0165	0.9585
42.1168	0.20559	3.157	0.08647	-1.0803	-0.11487	3.8734	-34.255	708.9681	-63.1051	286.9151	82.1347	778.2221	-0.0592	0.0182	-0.0073	-0.0462	0.0165	0.9585
42.128	0.081963	3.2339	0.11927	-1.1001	-0.20603	3.9645	-28.3531	705.869	-61.6798	285.8727	77.5939	766.991	-0.0592	0.0182	-0.0073	-0.0462	0.0165	0.9585
42.1392	-0.075546	3.1856	0.17844	-1.0757	-0.34197	3.9077	-21.7794	705.2146	-60.2008	285.9057	72.7447	757.9183	-0.0592	0.0182	-0.0073	-0.0462	0.0165	0.9585
42.1504	-0.24825	2.933	0.25592	-0.98269	-0.51001	3.5885	-14.631	707.0548	-58.6922	287.002	67.6518	751.1289	-0.0592	0.0182	-0.0073	-0.0462	0.0165	0.9585
42.1616	-0.45395	2.4152	0.36803	-0.79807	-0.72239	2.9396	-7.0821	711.2434	-57.187	289.0551	62.4251	746.5823	-0.0592	0.0182	-0.0073	-0.0462	0.0165	0.9585
42.1729	-0.66789	1.5349	0.50891	-0.49073	-0.96324	1.829	0.57851	717.3552	-55.7617	291.8341	57.2522	744.0118	-0.0592	0.0182	-0.0073	-0.0462	0.0165	0.9585
42.1841	-0.87578	0.2068	0.67155	-0.032948	-1.2156	0.16275	8.0662	724.6954	-54.514	294.993	52.3439	742.9052	-0.0592	0.0182	-0.0073	-0.0462	0.0165	0.9585
42.1953	-1.0072	-1.625	0.82113	0.59464	-1.4211	-2.119	15.0797	732.3653	-53.543	298.1052	47.9063	742.5483	-0.0592	0.0182	-0.0073	-0.0462	0.0165	0.9585
42.2065	-0.99105	-3.9172	0.90808	1.3772	-1.4964	-4.9637	21.4082	739.3519	-52.9653	300.7183	44.1285	742.0798	-0.0592	0.0182	-0.0073	-0.0462	0.0165	0.9585
42.2177	-0.7068	-6.4829	0.86193	2.2475	-1.3168	-8.1451	26.8776	744.7548	-52.8631	302.4459	41.1532	740.7401	-0.0592	0.0182	-0.0073	-0.0462	0.0165	0.9585
42.2289	-0.0094447	-8.9189	0.58585	3.06	-0.71491	-11.1766	31.4042	747.8937	-53.3219	303.0239	39.0964	737.9047	-0.0592	0.0182	-0.0073	-0.0462	0.0165	0.9585
42.2401	1.2557	-10.4981	-0.038064	3.5594	0.51039	-13.1577	34.9495	748.5413	-54.3367	302.3903	37.9737	733.3629	-0.0592	0.0182	-0.0073	-0.0462	0.0165	0.9585
42.2514	3.261	-10.1097	-1.1415	3.3554	2.583	-12.7176	37.5548	746.8222	-55.8606	300.6564	37.7404	727.187	-0.0592	0.0182	-0.0073	-0.0462	0.0165	0.9585
42.2626	6.0941	-6.1831	-2.8504	1.9017	5.6932	-7.9048	39.2754	743.1329	-57.7428	298.0547	38.2447	719.6892	-0.0592	0.0182	-0.0073	-0.0462	0.0165	0.9585
42.2738	9.753	3.263	-5.2445	-1.4879	9.93	3.7305	40.2813	737.8589	-59.7693	294.8245	39.231	711.1285	-0.0592	0.0182	-0.0073	-0.0462	0.0165	0.9585
42.285	13.9735	20.5122	-8.2964	-7.5926	15.1597	25.0062	40.7648	731.2169	-61.666	291.1345	40.3702	701.5988	-0.0592	0.0182	-0.0073	-0.0462	0.0165	0.9585
42.2962	18.1527	47.7405	-11.7785	-17.1436	20.875	58.6007	41.0188	723.0703	-63.1425	287.0031	41.2836	690.8349	-0.0592	0.0182	-0.0073	-0.0462	0.0165	0.9585
42.3074	21.14	86.4211	-15.1451	-30.6078	25.9911	106.3582	41.2997	712.8407	-63.9323	282.2487	41.621	678.2129	-0.0592	0.0182	-0.0073	-0.0462	0.0165	0.9585
42.3186	21.2408	136.5084	-17.4534	-47.9062	28.7669	168.2575	41.8357	699.428	-63.8285	276.4613	41.1024	662.6308	-0.0592	0.0182	-0.0073	-0.0462	0.0165	0.9585
42.3299	16.9315	196.2077	-17.5903	-68.3203	27.3149	242.1664	42.7115	681.3911	-62.7137	269.0683	39.5787	642.7507	-0.0592	0.0182	-0.0073	-0.0462	0.0165	0.9585
42.3411	8.264	261.8766	-14.3417	-90.4812	20.1633	323.5579	43.8512	657.1662	-60.5304	259.4336	37.0266	617.1707	-0.0592	0.0182	-0.0073	-0.0462	0.0165	0.9585
42.3523	-3.2695	328.0236	-6.8241	-112.4437	6.8323	405.4701	45.012	625.4053	-57.3085	246.9868	33.5727	584.7512	-0.0592	0.0182	-0.0073	-0.0462	0.0165	0.9585
42.3635	-15.6421	389.1716	4.3409	-132.4046	-11.1415	480.6985	45.854	585.2307	-53.1531	231.3376	29.4505	544.8012	-0.0592	0.0182	-0.0073	-0.0462	0.0165	0.9585
